HIERARCHY
ROOT Hips
{
 OFFSET 0.000000 0.000000 0.000000
 CHANNELS 6 Xposition Yposition Zposition Yrotation Xrotation Zrotation
 JOINT Chest
 {
  OFFSET 0.000000 9.585900 0.002600
  CHANNELS 3 Yrotation Xrotation Zrotation
  JOINT Chest2
  {
   OFFSET 0.000000 9.601200 -0.005300
   CHANNELS 3 Yrotation Xrotation Zrotation
   JOINT Chest3
   {
    OFFSET 0.000000 9.561800 0.000000
    CHANNELS 3 Yrotation Xrotation Zrotation
    JOINT Chest4
    {
     OFFSET 0.000000 9.552100 0.000000
     CHANNELS 3 Yrotation Xrotation Zrotation
     JOINT Neck
     {
      OFFSET 0.000000 14.453000 0.000000
      CHANNELS 3 Yrotation Xrotation Zrotation
      JOINT Head
      {
       OFFSET 0.000000 8.936500 -0.011300
       CHANNELS 3 Yrotation Xrotation Zrotation
       End Site
       {
        OFFSET 0.000000 17.073600 -0.006000
       }
      }
     }
     JOINT RightCollar
     {
      OFFSET -2.921100 9.558500 0.000000
      CHANNELS 3 Yrotation Xrotation Zrotation
      JOINT RightShoulder
      {
       OFFSET -13.519700 0.000000 0.000000
       CHANNELS 3 Yrotation Xrotation Zrotation
       JOINT RightElbow
       {
        OFFSET 0.000000 -29.696600 0.000000
        CHANNELS 3 Yrotation Xrotation Zrotation
        JOINT RightWrist
        {
         OFFSET 0.000000 -24.004700 0.000000
         CHANNELS 3 Yrotation Xrotation Zrotation
         End Site
         {
          OFFSET 0.000000 -17.728500 0.000000
         }
        }
       }
      }
     }
     JOINT LeftCollar
     {
      OFFSET 2.921100 9.558500 0.000000
      CHANNELS 3 Yrotation Xrotation Zrotation
      JOINT LeftShoulder
      {
       OFFSET 13.519700 0.000000 0.000000
       CHANNELS 3 Yrotation Xrotation Zrotation
       JOINT LeftElbow
       {
        OFFSET 0.000000 -29.696600 0.000000
        CHANNELS 3 Yrotation Xrotation Zrotation
        JOINT LeftWrist
        {
         OFFSET 0.000000 -24.004700 0.000000
         CHANNELS 3 Yrotation Xrotation Zrotation
         End Site
         {
          OFFSET 0.000000 -17.728500 0.000000
         }
        }
       }
      }
     }
    }
   }
  }
 }
 JOINT RightHip
 {
  OFFSET -7.771700 -0.012900 -0.001300
  CHANNELS 3 Yrotation Xrotation Zrotation
  JOINT RightKnee
  {
   OFFSET 0.000000 -40.869800 0.001200
   CHANNELS 3 Yrotation Xrotation Zrotation
   JOINT RightAnkle
   {
    OFFSET 0.000000 -39.717900 0.002100
    CHANNELS 3 Yrotation Xrotation Zrotation
    JOINT RightToe
    {
     OFFSET 0.000000 -4.965400 11.033500
     CHANNELS 3 Yrotation Xrotation Zrotation
     End Site
     {
      OFFSET 0.000000 -1.423100 5.872300
     }
    }
   }
  }
 }
 JOINT LeftHip
 {
  OFFSET 7.771700 -0.012900 -0.001300
  CHANNELS 3 Yrotation Xrotation Zrotation
  JOINT LeftKnee
  {
   OFFSET 0.000000 -40.869800 0.001200
   CHANNELS 3 Yrotation Xrotation Zrotation
   JOINT LeftAnkle
   {
    OFFSET 0.000000 -39.717900 0.002100
    CHANNELS 3 Yrotation Xrotation Zrotation
    JOINT LeftToe
    {
     OFFSET 0.000000 -4.965400 11.033500
     CHANNELS 3 Yrotation Xrotation Zrotation
     End Site
     {
      OFFSET 0.000000 -1.423100 5.872300
     }
    }
   }
  }
 }
}
MOTION
Frames: 15
Frame Time: 0.008333
-6.567818 52.511755 27.733292 177.764408 -30.972678 -11.014456 -0.411065 13.101166 6.184188 -0.365078 7.479270 2.507082 -0.534952 9.423776 3.113933 -0.421846 7.512583 2.495936 6.358757 19.982510 -2.265947 7.346952 -4.231396 -3.904957 2.766529 2.108510 -3.775461 -14.066922 -8.056455 7.062871 -41.288064 -74.387709 53.777945 10.698522 0.133144 -2.052872 -9.116786 2.712614 -3.971413 7.182150 -0.933063 -0.025500 -78.418843 -74.174301 88.739227 11.846172 -13.137158 -9.602839 -15.882589 -33.825541 7.600900 30.716565 84.183971 27.531194 1.428824 -16.619520 0.670535 -0.464662 1.183074 -0.312641 -16.481445 -47.669921 17.818058 168.696424 78.153869 164.745401 -0.714560 -16.788094 0.270909 -1.116203 -2.175676 -0.470025
-6.531113 52.745402 27.730026 177.798654 -30.903140 -11.094679 -0.468700 13.072535 6.239103 -0.388573 7.481168 2.498872 -0.551824 9.424059 3.105538 -0.433795 7.508522 2.489397 6.329518 19.949745 -2.275213 7.411769 -4.275460 -3.936548 2.807954 2.092392 -3.832395 -14.003604 -8.028794 7.070057 -41.681943 -74.328834 54.135997 10.680294 0.031066 -1.975909 -9.077065 2.748370 -3.954398 7.200929 -0.942779 -0.029065 -78.853274 -74.211723 89.163300 11.872504 -13.154881 -9.503204 -16.054456 -33.860230 7.717685 30.327096 84.223791 27.158159 1.498783 -16.591668 0.618124 -0.448085 1.118542 -0.309902 -16.498456 -47.578615 17.961532 168.931486 78.350076 164.966502 -0.785655 -16.562050 0.320863 -1.080076 -2.373825 -0.454428
-6.501184 52.957295 27.715403 177.793047 -30.896934 -11.131834 -0.465832 13.077277 6.277181 -0.434374 7.508104 2.489699 -0.567303 9.422357 3.092563 -0.403153 7.492559 2.489251 6.312133 19.927658 -2.286683 7.441411 -4.310725 -3.954456 2.812902 2.083753 -3.874401 -13.972127 -8.002741 7.080547 -42.192601 -74.259211 54.623093 10.662674 -0.099872 -1.852488 -9.078726 2.784790 -3.939380 7.215086 -0.936667 -0.025036 -79.418240 -74.254737 89.726764 11.921625 -13.151857 -9.381292 -16.167306 -33.837162 7.771588 29.872214 84.262490 26.725131 1.600614 -16.549098 0.551238 -0.466622 1.037734 -0.309012 -16.450406 -47.465378 18.067605 169.061854 78.492994 165.038738 -0.801822 -16.294578 0.423125 -1.138524 -2.629114 -0.476709
-6.476518 53.142925 27.698435 177.775491 -30.887268 -11.153362 -0.493019 13.115574 6.291012 -0.444854 7.505756 2.482321 -0.567393 9.414659 3.079151 -0.381171 7.479093 2.493712 6.297931 19.896611 -2.306560 7.465387 -4.354159 -3.971812 2.798552 2.083607 -3.930263 -13.930745 -7.995064 7.125122 -42.853103 -74.176792 55.256677 10.662921 -0.233073 -1.689026 -9.080525 2.815631 -3.927349 7.244932 -0.938842 -0.021602 -80.085392 -74.284802 90.373565 11.990377 -13.149031 -9.201493 -16.271523 -33.814507 7.812472 29.575928 84.282097 26.431631 1.719731 -16.515097 0.490639 -0.508662 0.970171 -0.314544 -16.392403 -47.376530 18.166139 169.171039 78.608136 165.087303 -0.828014 -16.070949 0.513900 -1.189332 -2.846503 -0.485320
-6.457661 53.302766 27.680888 177.761187 -30.860521 -11.163023 -0.518504 13.132880 6.293600 -0.484675 7.533737 2.460601 -0.536730 9.381866 3.074937 -0.397279 7.469114 2.490984 6.346432 19.868388 -2.311981 7.458834 -4.417056 -3.995636 2.795969 2.093546 -3.995351 -13.884076 -7.997930 7.191943 -43.756585 -74.076809 56.145968 10.679011 -0.344584 -1.506549 -9.053941 2.841462 -3.910946 7.288456 -0.940674 -0.012538 -80.904107 -74.299525 91.155117 12.066723 -13.173235 -8.942972 -16.329367 -33.826762 7.835282 29.193809 84.321582 26.074098 1.804895 -16.471367 0.438720 -0.549159 0.879313 -0.297522 -16.336594 -47.319074 18.246551 169.284801 78.707221 165.154633 -0.888515 -15.909977 0.592146 -1.199437 -3.003836 -0.485676
-6.445139 53.437046 27.665916 177.769909 -30.794164 -11.164882 -0.570800 13.122023 6.274907 -0.497023 7.539837 2.448631 -0.533787 9.363466 3.067055 -0.405397 7.464248 2.480126 6.387984 19.831404 -2.309530 7.450399 -4.490911 -4.022709 2.793297 2.104794 -4.039651 -13.888081 -7.967973 7.273439 -44.942238 -73.993900 57.371788 10.694603 -0.419067 -1.322385 -9.038171 2.856501 -3.887118 7.348825 -0.935901 0.003217 -81.894784 -74.285746 92.097329 12.146862 -13.246031 -8.612901 -16.407688 -33.882133 7.843282 29.009350 84.358594 25.909333 1.874645 -16.461156 0.382155 -0.552205 0.828373 -0.280617 -16.304463 -47.313825 18.313908 169.412656 78.786626 165.238061 -0.978006 -15.832916 0.664959 -1.173657 -3.082490 -0.477006
-6.434710 53.548921 27.654193 177.774608 -30.697002 -11.165739 -0.637393 13.122631 6.252054 -0.479930 7.495169 2.445852 -0.542135 9.355196 3.055237 -0.457971 7.475749 2.453287 6.448611 19.759569 -2.311961 7.464387 -4.558577 -4.048464 2.829202 2.109635 -4.074475 -13.845545 -7.981571 7.355723 -46.371674 -73.869216 58.795168 10.692393 -0.457991 -1.159580 -8.976048 2.851289 -3.853623 7.416672 -0.918751 0.028486 -83.051087 -74.221550 93.207882 12.235218 -13.397755 -8.215991 -16.599607 -33.948299 7.871454 29.552801 84.346253 26.406919 2.005198 -16.519940 0.317491 -0.613322 0.863286 -0.310975 -16.285954 -47.343678 18.377545 169.586737 78.864969 165.392431 -1.072067 -15.828879 0.710020 -1.114598 -3.086244 -0.460189
-6.424511 53.646721 27.636654 177.763326 -30.641829 -11.162786 -0.644483 13.080501 6.252194 -0.506977 7.528953 2.432802 -0.548729 9.347954 3.043000 -0.478200 7.476231 2.437073 6.427907 19.663430 -2.353023 7.512990 -4.610730 -4.058359 2.829572 2.126987 -4.115127 -13.870049 -7.921614 7.523496 -47.972499 -73.828729 60.464417 10.658519 -0.474078 -1.039390 -8.945178 2.846046 -3.827823 7.479630 -0.888284 0.062224 -84.346367 -74.075006 94.475893 12.332298 -13.653383 -7.747614 -16.701686 -33.995105 7.892621 30.009889 84.362573 26.850288 2.049095 -16.573023 0.282968 -0.610944 0.881886 -0.333528 -16.244680 -47.355090 18.447563 169.712283 78.901224 165.471454 -1.134781 -15.814720 0.787425 -1.118150 -3.118055 -0.460493
-6.414746 53.726762 27.623930 177.728186 -30.559378 -11.147745 -0.651515 13.048537 6.247983 -0.496739 7.500861 2.429213 -0.562098 9.355490 3.030826 -0.491541 7.481757 2.422415 6.426832 19.591196 -2.374000 7.514838 -4.694378 -4.084391 2.813829 2.146923 -4.158768 -13.923927 -7.870191 7.686574 -49.732079 -73.779648 62.317874 10.594198 -0.481910 -0.966614 -8.913685 2.827984 -3.803398 7.520049 -0.835649 0.101490 -85.742002 -73.816963 95.871202 12.436723 -14.010533 -7.213971 -16.761784 -34.091555 7.930632 30.480724 84.395724 27.324771 2.042272 -16.629468 0.246749 -0.663289 0.888311 -0.323002 -16.204323 -47.408299 18.526375 169.845862 78.924651 165.565383 -1.186604 -15.829676 0.855868 -1.124002 -3.121461 -0.461768
-6.402832 53.792948 27.614758 177.680693 -30.462804 -11.137628 -0.653075 13.003459 6.252141 -0.499516 7.508500 2.418647 -0.532885 9.306055 3.037437 -0.522318 7.508260 2.400269 6.419308 19.512750 -2.398879 7.511802 -4.783142 -4.109630 2.795076 2.164406 -4.198937 -13.997691 -7.819338 7.835947 -51.627556 -73.759340 64.336986 10.491394 -0.484254 -0.961503 -8.914305 2.816796 -3.777893 7.587251 -0.787919 0.139345 -87.201843 -73.436926 97.359449 12.546085 -14.445179 -6.632885 -16.795680 -34.205723 7.993461 30.835101 84.433934 27.680213 2.044400 -16.708712 0.236204 -0.681634 0.931859 -0.328662 -16.201352 -47.488662 18.614390 169.941094 78.928393 165.630983 -1.173444 -15.844411 0.888717 -1.159893 -3.125497 -0.467715
-6.394158 53.845539 27.610426 177.677819 -30.330508 -11.126153 -0.692616 12.927489 6.237757 -0.503708 7.517369 2.410856 -0.538478 9.288251 3.021720 -0.516548 7.504139 2.398402 6.390790 19.421639 -2.438186 7.515763 -4.865853 -4.129404 2.768499 2.181957 -4.237556 -14.087088 -7.754702 7.984029 -53.671309 -73.817172 66.547693 10.333714 -0.480898 -1.072843 -8.920205 2.798048 -3.756895 7.649809 -0.731916 0.179879 -88.685965 -72.952552 98.902190 12.662019 -14.928385 -6.027564 -16.861540 -34.354291 8.040403 31.216212 84.474736 28.062520 2.027015 -16.814807 0.221861 -0.669635 1.001196 -0.325202 -16.202913 -47.592994 18.682674 170.154408 78.953705 165.827869 -1.250531 -15.968813 0.918050 -1.107856 -3.016840 -0.454161
-6.380730 53.892283 27.604650 177.665052 -30.225171 -11.132077 -0.708591 12.932410 6.257187 -0.491212 7.457751 2.402571 -0.557579 9.283135 3.006845 -0.502461 7.498998 2.396035 6.389269 19.361966 -2.450278 7.479252 -4.979359 -4.173270 2.732537 2.195743 -4.275831 -14.175068 -7.675405 8.131381 -55.904643 -73.961947 68.981558 10.142589 -0.491660 -1.315859 -8.923279 2.769536 -3.743147 7.692666 -0.671634 0.225493 -90.154900 -72.404010 100.455789 12.791359 -15.433600 -5.419104 -16.941009 -34.473274 8.126253 31.769708 84.511976 28.599125 1.990346 -16.911257 0.202522 -0.650284 1.060082 -0.316073 -16.218117 -47.671380 18.765635 170.357529 78.975721 166.028877 -1.300608 -16.076973 0.930628 -1.066956 -2.920007 -0.439955
-6.368292 53.932654 27.598989 177.676499 -30.124899 -11.138990 -0.729929 12.888772 6.269458 -0.492532 7.453329 2.397804 -0.566607 9.308103 2.994626 -0.494237 7.464514 2.396728 6.376810 19.299660 -2.466804 7.441017 -5.091940 -4.218162 2.689109 2.201521 -4.313087 -14.243504 -7.579577 8.275950 -58.384662 -74.192878 71.671696 9.958698 -0.540936 -1.640145 -8.925891 2.734871 -3.734258 7.719385 -0.618466 0.269110 -91.600408 -71.831287 102.001355 12.925713 -15.939327 -4.822519 -17.006450 -34.585794 8.185747 32.239705 84.551498 29.070453 1.941212 -17.025536 0.181385 -0.609100 1.136055 -0.299365 -16.256823 -47.756919 18.843573 170.520049 78.971866 166.166657 -1.342016 -16.181405 0.970267 -1.056852 -2.833899 -0.442139
-6.351272 53.973767 27.586053 177.663213 -30.095361 -11.156691 -0.713745 12.883920 6.300730 -0.487916 7.475694 2.400327 -0.566605 9.314565 2.989959 -0.491717 7.449519 2.394898 6.334092 19.215230 -2.505749 7.421173 -5.181586 -4.251207 2.660755 2.181165 -4.332028 -14.298911 -7.450278 8.394755 -61.197358 -74.507651 74.683704 9.803520 -0.640761 -1.982893 -8.930492 2.694127 -3.727817 7.734486 -0.577637 0.300901 -93.033396 -71.255711 103.538046 13.053056 -16.430591 -4.255972 -17.030065 -34.625287 8.243431 32.722637 84.588578 29.559048 1.922659 -17.137532 0.165056 -0.609016 1.206639 -0.294645 -16.271759 -47.777588 18.939210 170.687126 78.951351 166.291505 -1.338532 -16.236397 1.035157 -1.103271 -2.807485 -0.465591
-6.334496 54.009896 27.575844 177.674841 -30.053027 -11.186139 -0.719426 12.869786 6.332888 -0.479691 7.499363 2.404084 -0.572494 9.286915 2.984999 -0.478019 7.471523 2.395861 6.268926 19.097993 -2.579996 7.410961 -5.236092 -4.253829 2.622156 2.154980 -4.352392 -14.325257 -7.303678 8.514198 -64.406186 -74.898615 78.080086 9.679815 -0.789529 -2.298125 -8.939766 2.647767 -3.721203 7.748148 -0.552586 0.319716 -94.465464 -70.688943 105.066074 13.186587 -16.891722 -3.739980 -17.079485 -34.668975 8.298985 33.326364 84.612843 30.174918 1.887455 -17.258940 0.142615 -0.613433 1.288363 -0.289950 -16.317239 -47.807997 19.015999 170.808519 78.938008 166.401020 -1.337658 -16.305633 1.045357 -1.122484 -2.757231 -0.461148
